<svg width="200" height="40" viewBox="0 0 1075 219" fill="none" xmlns="http://www.w3.org/2000/svg" class="h-6 w-auto"><path d="M215.49 183.151V49.9414H271.81C280.99 49.9414 288.85 51.4914 295.41 54.5914C301.96 57.6914 306.97 62.1314 310.43 67.9114C313.89 73.6914 315.62 80.6914 315.62 88.9214C315.62 94.7614 314.01 100.341 310.79 105.641C307.57 110.951 302.27 115.381 294.88 118.961V105.371C301.91 108.111 307.34 111.391 311.15 115.201C314.96 119.021 317.59 123.161 319.02 127.631C320.45 132.101 321.16 136.781 321.16 141.671C321.16 154.781 316.81 164.981 308.11 172.251C299.41 179.521 287.31 183.161 271.81 183.161H215.49V183.151ZM243.21 100.011H273.79C278.08 100.011 281.51 98.7914 284.07 96.3414C286.63 93.9014 287.91 90.6514 287.91 86.5914C287.91 82.5314 286.63 79.2914 284.07 76.8414C281.51 74.4014 278.08 73.1714 273.79 73.1714H243.21V99.9914V100.011ZM243.21 159.011H275.04C280.64 159.011 285.11 157.401 288.45 154.181C291.79 150.961 293.46 146.791 293.46 141.661C293.46 136.531 291.79 132.181 288.45 128.971C285.11 125.751 280.64 124.141 275.04 124.141H243.21V159.011Z" fill="#F9F9F9"></path><path d="M366.041 185.291C359.011 185.291 352.931 184.161 347.801 181.891C342.671 179.631 338.741 176.381 336.001 172.151C333.261 167.921 331.891 162.881 331.891 157.041C331.891 151.561 333.141 146.701 335.641 142.471C338.141 138.241 341.991 134.691 347.171 131.831C352.361 128.971 358.821 126.941 366.571 125.751L396.431 120.921V140.591L371.401 145.061C367.581 145.771 364.661 147.001 362.641 148.731C360.611 150.461 359.601 152.931 359.601 156.151C359.601 159.131 360.731 161.461 363.001 163.121C365.261 164.791 368.071 165.621 371.401 165.621C375.811 165.621 379.681 164.671 383.021 162.761C386.361 160.851 388.951 158.261 390.801 154.981C392.651 151.701 393.571 148.101 393.571 144.161V118.771C393.571 115.081 392.111 111.981 389.191 109.471C386.271 106.971 382.311 105.721 377.301 105.721C372.291 105.721 368.331 107.031 364.691 109.651C361.051 112.271 358.401 115.731 356.731 120.021L335.271 109.831C337.181 104.351 340.211 99.6411 344.391 95.7111C348.561 91.7811 353.571 88.7411 359.411 86.5911C365.251 84.4411 371.631 83.3711 378.541 83.3711C386.761 83.3711 394.031 84.8611 400.351 87.8411C406.671 90.8211 411.581 94.9611 415.101 100.271C418.611 105.571 420.381 111.741 420.381 118.781V183.151H395.351V167.421L401.431 166.351C398.571 170.641 395.411 174.191 391.951 176.991C388.491 179.791 384.621 181.881 380.331 183.251C376.041 184.621 371.271 185.311 366.031 185.311L366.041 185.291Z" fill="#F9F9F9"></path><path d="M486.911 185.292C477.131 185.292 468.341 183.052 460.541 178.582C452.731 174.112 446.531 168.002 441.941 160.252C437.351 152.502 435.061 143.802 435.061 134.142C435.061 124.482 437.321 115.812 441.851 108.122C446.381 100.432 452.581 94.3816 460.451 89.9716C468.321 85.5616 477.141 83.3516 486.911 83.3516C494.181 83.3516 500.911 84.6016 507.111 87.1016C513.311 89.6016 518.611 93.0916 523.021 97.5616C527.431 102.032 530.591 107.312 532.501 113.382L509.261 123.392C507.591 118.502 504.761 114.632 500.771 111.772C496.781 108.912 492.161 107.482 486.911 107.482C482.261 107.482 478.121 108.612 474.481 110.882C470.841 113.152 467.981 116.312 465.901 120.362C463.811 124.412 462.771 129.062 462.771 134.312C462.771 139.562 463.811 144.212 465.901 148.262C467.981 152.312 470.841 155.472 474.481 157.742C478.111 160.012 482.261 161.142 486.911 161.142C492.271 161.142 496.921 159.712 500.861 156.852C504.791 153.992 507.591 150.122 509.261 145.232L532.501 155.422C530.711 161.142 527.611 166.272 523.201 170.802C518.791 175.332 513.481 178.882 507.291 181.442C501.091 184.002 494.301 185.282 486.911 185.282V185.292Z" fill="#F9F9F9"></path><path d="M547.16 183.151V47.8008H573.98V134.521L563.97 131.301L607.06 85.5308H640.14L604.74 124.871L639.96 183.161H609.56L580.06 133.631L595.62 129.701L565.76 162.241L573.98 146.681V183.161H547.16V183.151Z" fill="#F9F9F9"></path><path d="M650.869 218.911V85.5206H675.899V104.121L673.579 98.7606C676.799 93.8706 681.179 90.0906 686.719 87.4106C692.259 84.7306 698.609 83.3906 705.759 83.3906C715.059 83.3906 723.459 85.6606 730.969 90.1806C738.479 94.7106 744.439 100.821 748.849 108.511C753.259 116.201 755.469 124.811 755.469 134.351C755.469 143.891 753.289 152.351 748.939 160.101C744.589 167.851 738.659 173.991 731.149 178.521C723.639 183.051 715.119 185.311 705.579 185.311C698.899 185.311 692.729 184.091 687.069 181.641C681.409 179.201 676.849 175.591 673.389 170.821L677.679 165.281V218.921H650.859L650.869 218.911ZM702.359 161.161C707.369 161.161 711.779 160.031 715.589 157.761C719.399 155.501 722.379 152.341 724.529 148.281C726.679 144.231 727.749 139.581 727.749 134.331C727.749 129.081 726.679 124.471 724.529 120.471C722.379 116.481 719.399 113.321 715.589 110.991C711.769 108.661 707.369 107.501 702.359 107.501C697.349 107.501 693.329 108.631 689.579 110.901C685.829 113.171 682.899 116.331 680.819 120.381C678.729 124.431 677.689 129.081 677.689 134.331C677.689 139.581 678.729 144.231 680.819 148.281C682.899 152.331 685.829 155.491 689.579 157.761C693.329 160.031 697.599 161.161 702.359 161.161Z" fill="#F9F9F9"></path><path d="M800.349 185.291C793.309 185.291 787.239 184.161 782.109 181.891C776.979 179.631 773.049 176.381 770.309 172.151C767.569 167.921 766.199 162.881 766.199 157.041C766.199 151.561 767.449 146.701 769.949 142.471C772.449 138.241 776.299 134.691 781.479 131.831C786.659 128.971 793.129 126.941 800.879 125.751L830.739 120.921V140.591L805.709 145.061C801.889 145.771 798.969 147.001 796.949 148.731C794.919 150.461 793.909 152.931 793.909 156.151C793.909 159.131 795.039 161.461 797.309 163.121C799.569 164.791 802.379 165.621 805.709 165.621C810.119 165.621 813.989 164.671 817.329 162.761C820.669 160.851 823.259 158.261 825.109 154.981C826.959 151.701 827.879 148.101 827.879 144.161V118.771C827.879 115.081 826.419 111.981 823.499 109.471C820.579 106.971 816.619 105.721 811.609 105.721C806.599 105.721 802.639 107.031 798.999 109.651C795.359 112.271 792.709 115.731 791.039 120.021L769.579 109.831C771.489 104.351 774.529 99.6411 778.699 95.7111C782.869 91.7811 787.879 88.7411 793.719 86.5911C799.559 84.4411 805.939 83.3711 812.849 83.3711C821.069 83.3711 828.339 84.8611 834.659 87.8411C840.979 90.8211 845.889 94.9611 849.409 100.271C852.919 105.571 854.689 111.741 854.689 118.781V183.151H829.659V167.421L835.739 166.351C832.879 170.641 829.719 174.191 826.259 176.991C822.799 179.791 818.929 181.881 814.639 183.251C810.349 184.621 805.579 185.311 800.339 185.311L800.349 185.291Z" fill="#F9F9F9"></path><path d="M921.221 185.292C911.441 185.292 902.651 183.052 894.851 178.582C887.041 174.112 880.841 168.002 876.251 160.252C871.661 152.502 869.371 143.802 869.371 134.142C869.371 124.482 871.631 115.812 876.161 108.122C880.691 100.432 886.891 94.3816 894.751 89.9716C902.621 85.5616 911.441 83.3516 921.211 83.3516C928.481 83.3516 935.221 84.6016 941.421 87.1016C947.621 89.6016 952.921 93.0916 957.331 97.5616C961.741 102.032 964.901 107.312 966.811 113.382L943.571 123.392C941.901 118.502 939.071 114.632 935.081 111.772C931.081 108.912 926.471 107.482 921.221 107.482C916.571 107.482 912.431 108.612 908.791 110.882C905.151 113.152 902.291 116.312 900.211 120.362C898.121 124.412 897.081 129.062 897.081 134.312C897.081 139.562 898.121 144.212 900.211 148.262C902.291 152.312 905.151 155.472 908.791 157.742C912.421 160.012 916.571 161.142 921.221 161.142C926.581 161.142 931.231 159.712 935.171 156.852C939.101 153.992 941.901 150.122 943.571 145.232L966.811 155.422C965.021 161.142 961.921 166.272 957.511 170.802C953.101 175.332 947.791 178.882 941.601 181.442C935.401 184.002 928.611 185.282 921.221 185.282V185.292Z" fill="#F9F9F9"></path><path d="M981.471 183.151V47.8008H1008.29V134.521L998.281 131.301L1041.37 85.5308H1074.45L1039.05 124.871L1074.27 183.161H1043.87L1014.37 133.631L1029.93 129.701L1000.07 162.241L1008.29 146.681V183.161H981.471V183.151Z" fill="#F9F9F9"></path><path d="M122.825 145.385C129.915 145.385 133.46 145.385 135.662 147.587C137.865 149.79 137.865 153.335 137.865 160.425V170.451C137.865 184.631 137.865 191.721 133.46 196.126C129.055 200.531 121.965 200.531 107.785 200.531H30.0796C15.9 200.531 8.81 200.531 4.40497 196.126C-8.69549e-05 191.721 0 184.631 0 170.451V160.425C0 153.335 -4.39257e-05 149.79 2.20249 147.587C4.40501 145.385 7.94998 145.385 15.0398 145.385H122.825Z" fill="#E33E3F"></path><path fill-rule="evenodd" clip-rule="evenodd" d="M68.9332 29.4531C138.869 29.4531 137.866 76.0758 137.866 98.3856C137.866 120.695 137.866 123.452 137.866 123.452C137.866 127.605 134.499 130.972 130.346 130.972H7.52068C3.36755 130.972 0.000780484 127.605 0.000780454 123.452C0.000780454 123.452 0.000780232 120.695 0.000780454 98.3856C0.000780676 76.0758 -1.0025 29.4531 68.9332 29.4531ZM68.9332 47.2186C57.166 47.2186 47.6268 56.7578 47.6268 68.5253C47.627 80.292 57.1661 89.8317 68.9332 89.8317C80.7006 89.8317 90.2396 80.292 90.2396 68.5253C90.2396 56.7578 80.7006 47.2186 68.9332 47.2186Z" fill="#E33E3F"></path><path d="M68.9133 0.550781C84.0038 0.550781 97.2138 5.82527 100.707 14.415C101.234 15.897 101.496 16.6382 101.029 17.1884C100.561 17.7387 99.6559 17.5747 97.8454 17.2466C93.1668 16.3986 86.543 15.8155 80.7113 15.6432C76.9903 15.4433 73.0649 15.3397 68.9346 15.3397C64.8061 15.3397 60.8825 15.4435 57.1633 15.6432C51.3037 15.8154 44.6563 16.3984 39.9608 17.2178C38.1889 17.527 37.3027 17.6814 36.8385 17.1327C36.3743 16.584 36.6309 15.8564 37.1445 14.4015C40.6099 5.83887 53.8272 0.550828 68.9133 0.550781Z" fill="#E33E3F"></path></svg>