<svg id="final_svg" viewBox="47.41337966918945 398.23541259765625 992.5974731445312 197.40936279296875" xmlns="http://www.w3.org/2000/svg" xmlns:xlink="http://www.w3.org/1999/xlink" xml:space="preserve">
      <g id="png_group" transform="translate(856.3148789999999, 398.23539999999997) scale(0.6266964564006055)" opacity="1">
      <g height="197.40938376619073" width="183.696" transform="rotate(0)">
                  <style type="text/css">.st0{fill:url(#SVGID_1_);}</style>
          <g id="color_index_g">
                          <linearGradient id="SVGID_1_" gradientUnits="userSpaceOnUse" x1="-0.0000002" y1="401.5" x2="298.8796082" y2="401.5" gradientTransform="matrix(1 0 0 1 0 -244)">
                                  <stop offset="0" style="stop-color:rgba(48, 5, 250, 1)"></stop>
                  <stop offset="1" style="stop-color:rgba(255, 18, 251, 1)"></stop>
                              </linearGradient>
              <path class="st0" d="M280.0912476,168.2428284c0.0187378-0.036911,0.0380554-0.0726929,0.0562134-0.1096191		c16.2681885-32.6010895,17.265564-64.3445282,2.8092651-89.3834915		c-12.8778992-22.3064003-36.5042877-36.642292-67.219101-41.070858C196.544342,13.2930756,172.316452,0,146.5589905,0		c-22.3245773,0-43.5001221,9.986846-61.2456131,28.5235424C59.731987,30.5614643,38.6132431,40.6585007,24.5028381,57.9581261		C6.2308226,80.3639221,2.1413448,111.8585815,12.9886856,146.6407318c0.0119276,0.0391846,0.0255585,0.0778198,0.0380545,0.1170044		c-0.0181751,0.0363464-0.0380545,0.0727081-0.0562305,0.1090546		c-16.2681713,32.6010895-17.2655487,64.3445282-2.8092442,89.3834991		c12.8778811,22.3069611,36.5042725,36.6422882,67.2190933,41.0714264C96.5736389,301.7069092,120.8015289,315,146.5589905,315		c22.3296814,0,43.5103455-9.991394,61.2581024-28.5365906c25.5706024-2.0402222,46.6916199-12.125885,60.7980499-29.4215393		c18.2720032-22.4057922,22.3614807-53.9004517,11.5141602-88.6826019		C280.1173706,168.3206482,280.1037292,168.2814484,280.0912476,168.2428284z M271.8764954,85.1474762		c10.6303711,18.4145813,11.1694031,41.5411453,1.7635803,66.0655212		c-3.7219849-8.3783264-8.2141418-16.6447449-13.4100647-24.7055588l-4.6642761,17.0429001		c4.3473511,7.8126068,7.9301758,15.6831512,10.7121582,23.4855347		c-4.3819885,8.0193481-9.6506042,15.8308258-15.7041626,23.3338776		c1.5176544-10.6928558,2.3207703-21.6884308,2.3207703-32.8691864c0-29.667511-5.4985657-60.093277-17.7237091-87.3391113		c-2.6733246-5.9579468-5.6783905-11.7689896-9.0385132-17.369133		C246.8721771,58.2199669,262.7427673,69.3285828,271.8764954,85.1474762z M53.0189972,157.5005646		c0-17.7983093,2.0930176-34.8525772,5.9098625-50.615242c11.8929939-11.332962,25.6574974-21.6162949,40.8601341-30.3939056		c17.8886261-10.3276367,36.5854874-17.8778381,55.0960617-22.4290848		c17.2502136,7.3440208,34.5396118,17.6932373,50.7930145,30.9488297		c11.4465637,9.3348007,21.5856323,19.4636459,30.3081512,30.0235825		c2.6712189,13.4345093,4.1127625,27.6942902,4.1127625,42.4658203c0,17.79776-2.0930176,34.852005-5.9092865,50.6141052		c-11.8930054,11.3329773-25.6575012,21.6163025-40.8607025,30.3939209		c-17.8818207,10.3236542-36.5724335,17.8908844-55.0767517,22.4427032		c-17.2558975-7.3440094-34.5521164-17.7017517-50.811203-30.9624481h-0.0011368		c-11.4465637-9.3348083-21.5856247-19.4636536-30.3081436-30.0235901		C54.460537,186.531311,53.0189972,172.27211,53.0189972,157.5005646z M197.5405884,36.2367516		c-8.420929-0.1454048-17.0355225,0.3947487-25.7472534,1.5812645l10.6093597,11.7066994		c4.158783-0.3368149,8.2834625-0.5191383,12.357605-0.5191383c2.894455,0,5.7661743,0.0851974,8.6072235,0.2578659		c1.8720703,0.1141663,3.7151794,0.2686577,5.5338593,0.456089c7.9432373,11.0063782,14.6692963,24.0733986,19.8174896,38.6586342		c-4.7466278-4.5887375-9.7346497-9.0269547-14.9538574-13.283989c-5.9595642-4.8602829-12.1525574-9.4351349-18.5579681-13.6909294		c-6.3523102-4.2205162-12.9407349-7.9979477-19.6017914-11.7028999c-4.8133698-2.6772537-9.9029083-5.0026283-14.9892578-7.1101379		c-1.8141327-0.7520103-3.3374634-1.3887177-4.6540527-1.9288712		c-15.6155548-6.2455406-31.4423981-10.2702694-46.9034653-11.8191586c-1.6102371-0.1607399-3.2039948-0.2845592-4.789238-0.3907719		c12.707489-10.0067272,27.0797272-15.6558857,42.2897491-15.6558857		C165.352417,12.7955227,182.865036,21.4209137,197.5405884,36.2367516z M34.4186859,66.0450745		c9.6119766-11.7850838,23.0726089-19.3455086,38.8551559-22.8698425c-0.9178619,1.2932968-1.8266373,2.6036339-2.717804,3.9503212		c-7.5609894,11.4329338-13.7923317,24.314785-18.6122322,38.2065163l15.7944679-5.6764221		c6.2233963-15.0276947,14.1956024-28.1611671,23.4639511-38.7228127c1.3574829-0.0494118,2.7212067-0.0846291,4.0997009-0.0846291		c12.3808975,0,25.5910492,1.9907799,39.0925751,5.8922577c-13.8752594,4.7176666-27.6653214,10.9700241-41.0032654,18.6707382		c-9.0180283,5.2061462-17.6032944,11.0505371-25.9167862,17.3136139		c-6.0140381,4.5307617-12.0375252,9.2800751-17.314682,14.6695099c-0.9797707,0.965004-1.8680954,1.8391342-2.6734962,2.6308975		c-0.0170364,0.0653229-0.0329399,0.1312103-0.0505486,0.1965256c-9.7846451,9.6653671-18.3208618,20.0276489-25.3808918,30.852272		C16.8799381,106.224762,20.5229797,83.083992,34.4186859,66.0450745z M21.2414799,229.8525238		c-10.630372-18.4140167-11.1693878-41.5405731-1.763588-66.0655212		c4.1763802,9.4012604,9.3228741,18.6616516,15.3446293,27.6482849l4.0724411-17.6199799		c-4.9550858-8.587326-8.9911728-17.2598572-12.054306-25.851181c4.381422-8.0193481,9.650032-15.8308258,15.7035942-23.3338776		c-1.5176506,10.6934204-2.3207779,21.6895752-2.3207779,32.8703156c0,7.742981,0.3608093,15.5649719,1.0776787,23.2746582		c2.6225128,28.2041779,11.0045586,56.9674835,25.6845512,81.4324493		C46.2463646,256.7800293,30.3752155,245.6719818,21.2414799,229.8525238z M95.5614929,278.7479248		c0.9189987,0.0158997,1.8345871,0.0408936,2.7575607,0.0408936c7.9733429,0,16.1102676-0.612854,24.3289871-1.7931213		l-10.7837296-11.6033325c-7.5093002,0.662262-14.9044418,0.7838135-22.1138535,0.3441772		c-1.8720703-0.1135864-3.7151718-0.2680664-5.5338593-0.4555054		c-7.9438095-11.0069427-14.6698608-24.0739594-19.8180618-38.6603394c4.7472,4.5893097,9.7357941,9.0280914,14.9555588,13.2851257		h-0.0011292c11.9242325,9.7244415,24.5255051,18.0942383,37.4562073,24.9662781		c-0.021019,0.0028381-0.0420303,0.0050964-0.0630493,0.0073547c5.3225708,2.7774658,11.9242401,6.0115356,18.2651978,8.5464478		c2.2242279,0.8894653,4.0071259,1.6102295,5.4679718,2.2071838c14.5341187,5.5088806,29.2147827,9.0860291,43.5802155,10.5247192		c1.6107941,0.1613159,3.2039948,0.2845764,4.7897949,0.3907776		c-12.7080536,10.0067444-27.0802917,15.6558838-42.2903137,15.6558838		C127.7593155,302.2044678,110.240448,293.5728455,95.5614929,278.7479248z M258.6993103,248.9549255		c-9.6131287,11.7862244-23.0743256,19.3534546-38.8602753,22.8778076c0.9195557-1.2955933,1.8305969-2.6087646,2.7229004-3.9582825		c7.3122253-11.0557861,13.3947449-23.4577026,18.1470642-36.8263245l-15.8035583,5.4151459		c-6.1529694,14.5613861-13.9542084,27.3091888-22.9919586,37.6073151		c-13.5583191,0.4913025-28.2117157-1.4767761-43.229187-5.8201294c13.8883209-4.7193909,27.6931458-10.9535522,41.04245-18.6616669		c9.6801453-5.5883789,18.8150177-11.7680359,27.3148804-18.427063c-0.0124969,0.0312347-0.0238647,0.0630493-0.0363464,0.0942841		c4.5438538-3.6339569,9.8499603-8.1062622,14.4875336-12.6194458c3.7958374-3.6941681,6.0331268-5.820694,7.3400421-7.0401611		c8.474884-8.7463684,15.9393005-18.0238037,22.2302856-27.6698608		C276.2380371,208.775238,272.5950012,231.9165802,258.6993103,248.9549255z M151.8601074,99.7067947l2.0352783,43.1479874		c0.1197662,2.5387726,2.1956635,4.5453033,4.7370453,4.5787506l30.6875916,0.4037781		c3.7883453,0.0498505,6.0318604,4.2594757,3.9608765,7.4320374l-40.7515411,62.4279022		c-2.6121979,4.0016479-8.8297119,2.1519318-8.8297119-2.6268463v-42.6512451c0-2.6540527-2.151535-4.8055878-4.805603-4.8055878		h-32.7028122c-3.7936096,0-6.0953522-4.18367-4.056221-7.3826447		c9.1347427-14.3305359,29.4064636-45.9985199,40.9515228-63.0014496		C145.6810608,93.4083862,151.6424866,95.0932236,151.8601074,99.7067947z"></path>
                      </g>
              </g>
    </g>
    <g id="text_group" transform="rotate(0)" opacity="1">
      <g id="text_layer_1_0" fill="rgba(243, 243, 243, 1)" transform="translate(38.623379, 421.1574)">
                  <path d="M31.13 102.80L31.13 33.64L8.79 33.64L8.79 121.50L68.41 121.50L68.41 102.80ZM101.42 121.50L101.42 33.64L79.08 33.64L79.08 121.50ZM177.36 76.82L177.36 99.54C172.09 102.17 166.31 103.80 161.79 103.80C147.23 103.80 136.06 92.51 136.06 77.57C136.06 62.89 147.11 51.59 161.54 51.59C169.70 51.59 178.61 55.23 185.02 61.13L197.57 45.94C188.53 37.91 174.72 32.89 161.67 32.89C133.93 32.89 113.22 52.09 113.22 77.57C113.22 103.18 133.43 122.51 160.16 122.51C172.46 122.51 187.27 117.74 196.69 111.08L196.69 76.82ZM293.34 121.50L293.34 33.64L271.00 33.64L271.00 69.79L234.60 69.79L234.60 33.64L212.25 33.64L212.25 121.50L234.60 121.50L234.60 87.36L271.00 87.36L271.00 121.50ZM378.06 51.59L378.06 33.51L303.00 33.51L303.00 51.59L329.24 51.59L329.24 121.50L351.58 121.50L351.58 51.59ZM424.25 32.89C397.52 32.89 377.31 51.96 377.31 77.32C377.31 103.05 397.02 122.51 423.50 122.51C436.43 122.51 450.36 116.11 459.78 106.44L446.72 92.63C440.57 98.91 432.04 102.93 424.63 102.93C410.70 102.93 400.15 91.75 400.15 77.07C400.15 62.63 410.70 51.59 424.63 51.59C432.41 51.59 440.95 55.98 446.72 63.01L459.65 47.70C450.86 38.66 437.31 32.89 424.25 32.89ZM551.03 121.50L551.03 33.64L528.69 33.64L528.69 69.79L492.29 69.79L492.29 33.64L469.94 33.64L469.94 121.50L492.29 121.50L492.29 87.36L528.69 87.36L528.69 121.50ZM626.97 105.31L633.24 121.50L657.09 121.50L620.06 33.64L597.09 33.64L559.19 121.50L582.16 121.50L588.56 105.31ZM620.44 88.37L595.09 88.37L607.89 55.86ZM687.59 121.50L687.59 33.64L665.25 33.64L665.25 121.50ZM786.25 121.50L786.25 33.64L765.41 33.64L765.41 87.86L724.87 33.64L705.17 33.64L705.17 121.50L726.13 121.50L726.13 67.40L766.54 121.50Z"></path>
              </g>
    </g>
  </svg>